# xmcd
#
# Track frame offsets:
#	150
#	17168
#	33364
#	47719
#	62594
#	75152
#	92446
#	107610
#	119596
#	137119
#	152900
#	169376
#	183824
#	203916
#	221136
#	237256
#	250817
#	269355
#	281024
#	294554
#	310245
#
# Disc length: 4355 seconds
# Revision: 0
# Processed by: cddbd v1.5.2PL0 Copyright (c) Steve Scherf et al.
# Submitted via: dBpowerAMP V12.0
#
DISCID=2c110115
DTITLE=José Luis Perales - Vol.2 (1978/1982) [CD2)
DYEAR=2014
DGENRE=Balada
TTITLE0=Te quiero
TTITLE1=Muchacho solitario
TTITLE2=No soy uno más
TTITLE3=Balada para una despedida
TTITLE4=Pequeño Superman
TTITLE5=Veinte años
TTITLE6=Ella y él
TTITLE7=Por ti
TTITLE8=Mi soledad
TTITLE9=No sé, no sé
TTITLE10=Es la verdad
TTITLE11=Por amor
TTITLE12=Canción de otoño
TTITLE13=Cuando vuelvas
TTITLE14=Y soñará
TTITLE15=Cantar una canción
TTITLE16=Y ¿cómo es él?
TTITLE17=A quién le importa
TTITLE18=Canción infantil (A mi hijo Pablo)
TTITLE19=Qué pasará mañana
TTITLE20=Como siempre
EXTD=
EXTT0=
EXTT1=
EXTT2=
EXTT3=
EXTT4=
EXTT5=
EXTT6=
EXTT7=
EXTT8=
EXTT9=
EXTT10=
EXTT11=
EXTT12=
EXTT13=
EXTT14=
EXTT15=
EXTT16=
EXTT17=
EXTT18=
EXTT19=
EXTT20=
PLAYORDER=
